PathFileType	4	(X/Y/Z)	Patient4_TMGait_0pt5_02_left_37.trc.trc
DataRate	CameraRate	NumFrames	NumMarkers	Units	OrigDataRate	OrigDataStartFrame	OrigNumFrames
75.675675675676	75.675675675676	4	33	mm	75.675675675676	71	       141
Frame#	Time	Sacral			L.Shoulder			Chest			R.Shoulder			Neck			R.ASIS			L.ASIS			R.Thigh.Superior			R.Thigh.Lateral			R.Thigh.Inferior			R.Patella			L.Thigh.Superior			L.Thigh.Lateral			L.Thigh.Inferior			L.Patella			L.Shank.Superior			L.Shank.Lateral			L.Shank.Inferior			R.Shank.Superior			R.Shank.Lateral			R.Shank.Inferior			R.Heel			R.Midfoot.Superior			R.Midfoot.Lateral			R.Toe			L.Heel			L.Midfoot.Lateral			L.Midfoot.Superior			L.Toe			L.Elbow			L.Wrist			R.Elbow			R.Wrist			
		X1	Y1	Z1	X2	Y2	Z2	X3	Y3	Z3	X4	Y4	Z4	X5	Y5	Z5	X6	Y6	Z6	X7	Y7	Z7	X8	Y8	Z8	X9	Y9	Z9	X10	Y10	Z10	X11	Y11	Z11	X12	Y12	Z12	X13	Y13	Z13	X14	Y14	Z14	X15	Y15	Z15	X16	Y16	Z16	X17	Y17	Z17	X18	Y18	Z18	X19	Y19	Z19	X20	Y20	Z20	X21	Y21	Z21	X22	Y22	Z22	X23	Y23	Z23	X24	Y24	Z24	X25	Y25	Z25	X26	Y26	Z26	X27	Y27	Z27	X28	Y28	Z28	X29	Y29	Z29	X30	Y30	Z30	X31	Y31	Z31	X32	Y32	Z32	X33	Y33	Z33	

71	48.555000000000	755.391984601320	1004.372411369472	433.370213893205	961.463555071137	1429.233462552878	267.162141982888	1043.698793523777	1353.057264159250	436.888450904781	946.308948874799	1429.410147165196	602.805045299645	948.884643436900	1489.241626021899	417.586106298177	975.335616969440	938.370272868638	565.776299399566	975.735845090108	952.711514027541	289.157826557655	1042.178270337498	761.075712721722	540.033658933603	994.944989334386	642.818669929369	613.428183594366	1080.441137145198	599.908178505449	532.392638542540	1112.204929746134	519.688638323042	548.554359182270	982.308835788987	727.131502740953	324.415823949221	870.188809000198	629.575406513037	261.801078230871	928.535303168576	538.619549915022	330.741643252322	913.327474935818	470.610071327641	342.939239011570	879.068260061200	404.378327623727	335.254496963565	777.742460444278	301.622096599238	283.541420043021	806.044558968179	187.521128507774	360.434483129807	1100.156746838278	433.887039275073	559.939189773282	1054.348927732998	318.563506130570	625.661720753454	1126.889146497623	235.524568364530	571.911198945549	1041.006589652100	47.252016568849	545.903047744824	1203.438523227688	121.070291619958	578.658688291296	1129.154748725008	43.028664681890	613.840408834744	1330.882762777392	86.121959507452	597.412661788256	660.386508615966	40.559170947712	401.045906669646	735.253152547940	35.820387011364	322.033756896292	819.289366414964	95.267901636130	349.652136573520	947.193670356610	40.103061919481	322.200413431808	1028.085608683176	1098.497302440369	118.059409586989	1279.752675860260	1053.453751987163	144.981147745531	783.000073067393	1126.920094271188	706.363332278981	736.597730631224	871.049088859557	723.773291231203	
72	48.568214285714	757.485789982671	1002.756244825454	434.902011411482	961.971919640091	1428.069548830237	268.951246662933	1044.435437542061	1352.348484497579	438.713403684975	946.704888450559	1428.365366605255	604.605394537106	949.195625145700	1488.081087280084	419.415962422139	977.371433806424	936.721237464460	567.282905830564	978.005378364267	951.640526257333	290.643487863026	1043.257885313603	758.097670202384	542.022829372254	993.416188543566	639.701095750849	613.970041309158	1079.396509814775	596.695080656456	533.688400916564	1109.887035067505	516.665938449825	548.839328241511	982.509005088346	725.599211183748	325.674422781289	869.338883749550	629.023101852763	262.657730277611	926.580995005040	537.410852621680	331.617795726270	910.779897768792	469.373101105295	343.621379075678	875.744172046918	403.512643914683	335.831524889711	773.436532934578	301.858369206714	283.798584582988	800.483193427513	187.334105866850	360.501300289900	1097.910205961231	430.624274146585	559.654516352853	1051.486703139096	315.173388815617	624.381555139099	1124.077858177920	232.354898120553	570.611474940696	1037.701620089604	45.628490937665	543.783602143110	1200.639116626281	117.766398460053	576.805098215309	1125.420516273873	41.205431535747	612.151382916977	1327.455214651044	81.512398019343	596.039356150280	653.744494143251	41.135245439933	400.796660166882	728.689454622704	36.051708723736	321.931490690099	812.827782040640	95.314554436547	349.561681540730	940.582031531987	39.908495369971	322.181978857010	1029.131219636690	1097.197079551562	120.124270824309	1280.785690461028	1053.597678736878	148.284482615356	781.323760367408	1127.169484310686	707.028916901046	732.782348468025	871.541263395762	724.081253393394	
73	48.581428571429	759.692417799792	1001.195659405795	436.656227233185	962.411514392341	1426.975906632729	270.878579313283	1045.212426305821	1351.775288712252	440.659439725707	947.118588550184	1427.361126539800	606.578689881089	949.467867074168	1487.004404506544	421.413488493325	979.612694692776	935.196198717417	568.888109279670	980.388547836948	950.605343793326	292.322100567338	1044.934950976315	755.495065653403	543.947873380344	992.569254708766	636.884769156349	614.296311525459	1079.085565317997	593.959567722953	534.782093562229	1108.270357226824	513.780814577254	548.888919882038	982.976082150026	724.135649623608	326.956999976975	868.748577569818	628.535192166964	263.667250503737	925.008836950314	536.249035269738	332.559009375600	908.672308191976	468.119551520952	344.362133394543	872.754682390555	402.667555223668	336.464694044258	769.341123868521	302.259323050811	284.094858094422	795.047493525445	187.252756943853	360.549640254763	1095.894415395854	427.296177793555	559.095854703010	1048.205084032225	312.037928279753	622.931643082319	1120.094107476060	228.951416670144	569.055871476400	1031.809512500706	44.468603073559	541.797669417249	1195.760824211629	114.089223643394	574.719745393372	1119.146905935891	39.637044413862	610.610477598534	1321.742063526109	75.779273976827	594.441989558220	647.128101543904	41.974292960200	400.494346847021	722.154386627108	36.408151686234	321.795110341864	806.434176202187	95.425328570264	349.419643438176	933.982217030617	39.684235079161	322.153036079848	1029.651679338699	1095.692725635749	122.483394182600	1281.202780330153	1052.584394985177	151.686258368727	780.760559639551	1126.733268755650	707.848539677439	730.846921613835	871.182206756801	724.331261491504	
74	48.594642857143	761.957901344300	999.776900492058	438.604128253486	962.857634822400	1425.992833518424	272.931443705901	1046.059909960198	1351.357312408646	442.728184482473	947.577869586921	1426.452299823129	608.704656708045	949.768622974754	1486.062523709521	423.558409587627	982.002709795038	933.869103989719	570.599326242040	982.830010692364	949.654915495072	294.179145352776	1047.102350318178	753.313912045805	545.772880913659	992.377312771200	634.465361127384	614.457565092492	1079.407628955769	591.758943539549	535.641984645035	1107.292758878724	511.146793447594	548.680790343715	983.700975560159	722.788345946640	328.236131194728	868.434724938274	628.139907869214	264.829461059931	923.878588168016	535.175766911444	333.545111475196	907.073293086431	466.872599927846	345.140300884559	870.156298041333	401.865640629808	337.142456383407	765.500788311886	302.861988740753	284.431734008349	789.774758741830	187.309983246569	360.569064730554	1094.202741327898	424.077445609077	558.319332027321	1044.877903222472	309.248826095295	621.466153056023	1115.429366679848	225.510400650933	567.335410241347	1024.170833597274	43.660603729669	540.067682588668	1189.468014677799	110.354953740898	572.519358867276	1111.214722061888	38.370583914714	609.301927345920	1314.536722216581	69.567227729565	592.710796533120	640.556533387821	43.143267140427	400.141770804792	715.657905185475	36.920438264706	321.624262156515	800.138703466570	95.615334081613	349.210558510523	927.400803895754	39.434311153593	322.111852718048	1029.634453873456	1094.003988029214	125.139988268282	1280.996395592489	1050.416235762889	155.169166752615	781.292582753198	1125.674630350233	708.851750618117	730.815968900310	870.022731382465	724.579892227943	
